<svg xmlns="http://www.w3.org/2000/svg" viewBox="2 2 60 60">
  <path d="M32 4.5 34.4 9l5 .8-3.5 3.6.8 5-4.7-2.3-4.7 2.3.8-5-3.5-3.6 5-.8Z" fill="#FACC15" stroke="#173E4B" stroke-width="2.6" stroke-linejoin="round"/>
  <path d="M32 17v4.5" fill="none" stroke="#173E4B" stroke-width="3" stroke-linecap="round"/>
  <path d="M10 35.5c0-10 9.8-16 22-16s22 6 22 16-9.8 18-22 18-22-8-22-18Z" fill="#5ECAC0" stroke="#173E4B" stroke-width="3.5"/>
  <path d="M22 22.6c5.5-2.1 14.5-2.1 20 0-.9 3.6-4.9 5.4-10 5.4s-9.1-1.8-10-5.4Z" fill="#8DE3D4" stroke="#173E4B" stroke-width="2.4"/>
  <path d="M10.5 31.7C6.8 31.7 5 34 5 37s1.8 5.3 5.5 5.3" fill="#FACC15" stroke="#173E4B" stroke-width="3"/>
  <path d="M53.5 31.7c3.7 0 5.5 2.3 5.5 5.3s-1.8 5.3-5.5 5.3" fill="#FACC15" stroke="#173E4B" stroke-width="3"/>
  <ellipse cx="22.8" cy="36" rx="7.1" ry="8.1" fill="#FACC15" stroke="#173E4B" stroke-width="2.5"/>
  <ellipse cx="41.2" cy="36" rx="7.1" ry="8.1" fill="#FACC15" stroke="#173E4B" stroke-width="2.5"/>
  <circle cx="24" cy="36" r="3.8" fill="#173E4B"/>
  <circle cx="42.4" cy="36" r="3.8" fill="#173E4B"/>
  <circle cx="25.3" cy="34.4" r="1.2" fill="#fff"/>
  <circle cx="43.7" cy="34.4" r="1.2" fill="#fff"/>
  <path d="M27.7 45.4c2.5 1.6 6.1 1.6 8.6 0" fill="none" stroke="#173E4B" stroke-width="2.7" stroke-linecap="round"/>
</svg>
